<mxfile host="app.diagrams.net" modified="2024-06-06T11:39:47.427Z" agent="Mozilla/5.0 (Macintosh; Intel Mac OS X 10_15_7) AppleWebKit/537.36 (KHTML, like Gecko) Chrome/125.0.0.0 Safari/537.36" etag="PCnoy9JVKUfzV_yhuO94" version="24.4.15" type="device">
  <diagram name="Page-1" id="ff44883e-f642-bcb2-894b-16b3d25a3f0b">
    <mxGraphModel dx="7570" dy="2853" grid="1" gridSize="10" guides="1" tooltips="1" connect="1" arrows="1" fold="1" page="1" pageScale="1.5" pageWidth="1169" pageHeight="826" background="none" math="0" shadow="0">
      <root>
        <mxCell id="0" style=";html=1;" />
        <mxCell id="1" style=";html=1;" parent="0" />
        <mxCell id="cwS-GazdJx-M9K_oSaZ1-229" value="" style="rounded=0;whiteSpace=wrap;html=1;fillColor=#ff0000;shadow=0;" parent="1" vertex="1">
          <mxGeometry x="4320" y="760" width="1600" height="1190" as="geometry" />
        </mxCell>
        <mxCell id="cwS-GazdJx-M9K_oSaZ1-219" value="" style="rounded=0;whiteSpace=wrap;html=1;fillColor=#007FFF;shadow=0;" parent="1" vertex="1">
          <mxGeometry x="-790" y="1920" width="2990" height="500" as="geometry" />
        </mxCell>
        <mxCell id="cwS-GazdJx-M9K_oSaZ1-218" value="" style="rounded=0;whiteSpace=wrap;html=1;fillColor=#FF9999;shadow=0;opacity=100%;" parent="1" vertex="1">
          <mxGeometry x="-2440" y="1020" width="3790" height="560" as="geometry" />
        </mxCell>
        <mxCell id="cwS-GazdJx-M9K_oSaZ1-194" value="" style="rounded=0;whiteSpace=wrap;html=1;fillColor=#D5E8D4;shadow=0;" parent="1" vertex="1">
          <mxGeometry x="-1630" width="4710" height="670" as="geometry" />
        </mxCell>
        <mxCell id="f0bcc99304e6f5a-9" style="edgeStyle=none;curved=1;html=1;startSize=10;endArrow=classic;endFill=1;endSize=10;strokeColor=#000000;strokeWidth=2;fontSize=12;exitX=1;exitY=0.5;exitDx=0;exitDy=0;entryX=0;entryY=0;entryDx=0;entryDy=0;" parent="1" source="f0bcc99304e6f5a-1" target="cwS-GazdJx-M9K_oSaZ1-3" edge="1">
          <mxGeometry relative="1" as="geometry">
            <mxPoint x="-3089.9951068847854" y="1288.996880171326" as="sourcePoint" />
            <mxPoint x="-2797.0604374644954" y="1368.1255000095741" as="targetPoint" />
          </mxGeometry>
        </mxCell>
        <mxCell id="f0bcc99304e6f5a-1" value="DesiredArea" style="ellipse;whiteSpace=wrap;html=1;rounded=0;shadow=1;strokeColor=#666666;strokeWidth=4;fontSize=30;align=center;fillColor=#f5f5f5;" parent="1" vertex="1">
          <mxGeometry x="-2400" y="1238.5" width="360" height="80" as="geometry" />
        </mxCell>
        <mxCell id="cwS-GazdJx-M9K_oSaZ1-1" value="RawDTMTiles" style="ellipse;whiteSpace=wrap;html=1;rounded=0;shadow=1;strokeColor=#666666;strokeWidth=4;fontSize=30;align=center;fillColor=#f5f5f5;" parent="1" vertex="1">
          <mxGeometry x="-725" y="1040" width="360" height="80" as="geometry" />
        </mxCell>
        <mxCell id="cwS-GazdJx-M9K_oSaZ1-2" value="Watersheds" style="ellipse;whiteSpace=wrap;html=1;rounded=0;shadow=1;strokeColor=#666666;strokeWidth=4;fontSize=30;align=center;fillColor=#f5f5f5;" parent="1" vertex="1">
          <mxGeometry x="-2400" y="1478.5" width="360" height="80" as="geometry" />
        </mxCell>
        <mxCell id="cwS-GazdJx-M9K_oSaZ1-3" value="&lt;font style=&quot;font-size: 24px;&quot;&gt;FindTouchingPolygons&lt;/font&gt;" style="rounded=0;whiteSpace=wrap;html=1;" parent="1" vertex="1">
          <mxGeometry x="-1960" y="1357.5" width="320" height="81" as="geometry" />
        </mxCell>
        <mxCell id="cwS-GazdJx-M9K_oSaZ1-4" style="edgeStyle=none;curved=1;html=1;startSize=10;endArrow=classic;endFill=1;endSize=10;strokeColor=#000000;strokeWidth=2;fontSize=12;entryX=0;entryY=1;entryDx=0;entryDy=0;exitX=1;exitY=0.5;exitDx=0;exitDy=0;" parent="1" source="cwS-GazdJx-M9K_oSaZ1-2" target="cwS-GazdJx-M9K_oSaZ1-3" edge="1">
          <mxGeometry relative="1" as="geometry">
            <mxPoint x="-2931" y="1317" as="sourcePoint" />
            <mxPoint x="-2790" y="1374" as="targetPoint" />
          </mxGeometry>
        </mxCell>
        <mxCell id="cwS-GazdJx-M9K_oSaZ1-5" style="edgeStyle=none;curved=1;html=1;startSize=10;endArrow=classic;endFill=1;endSize=10;strokeColor=#000000;strokeWidth=2;fontSize=12;exitX=1;exitY=0.5;exitDx=0;exitDy=0;entryX=0;entryY=0.5;entryDx=0;entryDy=0;" parent="1" source="cwS-GazdJx-M9K_oSaZ1-3" target="cwS-GazdJx-M9K_oSaZ1-6" edge="1">
          <mxGeometry relative="1" as="geometry">
            <mxPoint x="-2914" y="1457" as="sourcePoint" />
            <mxPoint x="-2430" y="1379" as="targetPoint" />
          </mxGeometry>
        </mxCell>
        <mxCell id="cwS-GazdJx-M9K_oSaZ1-6" value="RelevantWatersheds" style="ellipse;whiteSpace=wrap;html=1;rounded=0;shadow=1;strokeColor=#666666;strokeWidth=4;fontSize=30;align=center;fillColor=#f5f5f5;" parent="1" vertex="1">
          <mxGeometry x="-1560" y="1357.5" width="360" height="80" as="geometry" />
        </mxCell>
        <mxCell id="cwS-GazdJx-M9K_oSaZ1-7" value="&lt;font style=&quot;font-size: 24px;&quot;&gt;CreateMosaic&lt;/font&gt;" style="rounded=0;whiteSpace=wrap;html=1;" parent="1" vertex="1">
          <mxGeometry x="-285" y="1040" width="320" height="80" as="geometry" />
        </mxCell>
        <mxCell id="cwS-GazdJx-M9K_oSaZ1-8" style="edgeStyle=none;curved=1;html=1;startSize=10;endArrow=classic;endFill=1;endSize=10;strokeColor=#000000;strokeWidth=2;fontSize=12;entryX=0;entryY=0.5;entryDx=0;entryDy=0;exitX=1;exitY=0.5;exitDx=0;exitDy=0;" parent="1" source="cwS-GazdJx-M9K_oSaZ1-1" target="cwS-GazdJx-M9K_oSaZ1-7" edge="1">
          <mxGeometry relative="1" as="geometry">
            <mxPoint x="-399" y="858" as="sourcePoint" />
            <mxPoint x="-295" y="820" as="targetPoint" />
          </mxGeometry>
        </mxCell>
        <mxCell id="cwS-GazdJx-M9K_oSaZ1-10" value="HeightMosaic" style="ellipse;whiteSpace=wrap;html=1;rounded=0;shadow=1;strokeColor=#666666;strokeWidth=4;fontSize=30;align=center;fillColor=#f5f5f5;" parent="1" vertex="1">
          <mxGeometry x="115" y="1040" width="360" height="80" as="geometry" />
        </mxCell>
        <mxCell id="cwS-GazdJx-M9K_oSaZ1-11" style="edgeStyle=none;curved=1;html=1;startSize=10;endArrow=classic;endFill=1;endSize=10;strokeColor=#000000;strokeWidth=2;fontSize=12;exitX=1;exitY=0.5;exitDx=0;exitDy=0;entryX=0;entryY=0.5;entryDx=0;entryDy=0;" parent="1" source="cwS-GazdJx-M9K_oSaZ1-7" target="cwS-GazdJx-M9K_oSaZ1-10" edge="1">
          <mxGeometry relative="1" as="geometry">
            <mxPoint x="-5" y="790" as="sourcePoint" />
            <mxPoint x="95" y="790" as="targetPoint" />
          </mxGeometry>
        </mxCell>
        <mxCell id="cwS-GazdJx-M9K_oSaZ1-14" value="AreaDissolved" style="ellipse;whiteSpace=wrap;html=1;rounded=0;shadow=1;strokeColor=#666666;strokeWidth=4;fontSize=30;align=center;fillColor=#f5f5f5;" parent="1" vertex="1">
          <mxGeometry x="-720" y="1358" width="350" height="80" as="geometry" />
        </mxCell>
        <mxCell id="cwS-GazdJx-M9K_oSaZ1-16" value="&lt;font style=&quot;font-size: 24px;&quot;&gt;ClipRasterByVector&lt;/font&gt;" style="rounded=0;whiteSpace=wrap;html=1;" parent="1" vertex="1">
          <mxGeometry x="560" y="1200" width="320" height="80" as="geometry" />
        </mxCell>
        <mxCell id="cwS-GazdJx-M9K_oSaZ1-19" style="edgeStyle=none;curved=1;html=1;startSize=10;endArrow=classic;endFill=1;endSize=10;strokeColor=#000000;strokeWidth=2;fontSize=12;exitX=1;exitY=0.5;exitDx=0;exitDy=0;entryX=0;entryY=0;entryDx=0;entryDy=0;" parent="1" source="cwS-GazdJx-M9K_oSaZ1-10" target="cwS-GazdJx-M9K_oSaZ1-16" edge="1">
          <mxGeometry relative="1" as="geometry">
            <mxPoint x="400" y="1110" as="sourcePoint" />
            <mxPoint x="510" y="1200" as="targetPoint" />
          </mxGeometry>
        </mxCell>
        <mxCell id="cwS-GazdJx-M9K_oSaZ1-20" value="ClippedHeightRaster" style="ellipse;whiteSpace=wrap;html=1;rounded=0;shadow=1;strokeColor=#666666;strokeWidth=4;fontSize=30;align=center;fillColor=#f5f5f5;" parent="1" vertex="1">
          <mxGeometry x="960" y="1200" width="360" height="80" as="geometry" />
        </mxCell>
        <mxCell id="cwS-GazdJx-M9K_oSaZ1-21" style="edgeStyle=none;curved=1;html=1;startSize=10;endArrow=classic;endFill=1;endSize=10;strokeColor=#000000;strokeWidth=2;fontSize=12;exitX=1;exitY=0.5;exitDx=0;exitDy=0;entryX=0;entryY=0.5;entryDx=0;entryDy=0;" parent="1" source="cwS-GazdJx-M9K_oSaZ1-16" target="cwS-GazdJx-M9K_oSaZ1-20" edge="1">
          <mxGeometry relative="1" as="geometry">
            <mxPoint x="840" y="1219.17" as="sourcePoint" />
            <mxPoint x="940" y="1219" as="targetPoint" />
          </mxGeometry>
        </mxCell>
        <mxCell id="cwS-GazdJx-M9K_oSaZ1-23" value="&lt;font style=&quot;font-size: 24px;&quot;&gt;RasterCalcAdd&lt;/font&gt;" style="rounded=0;whiteSpace=wrap;html=1;" parent="1" vertex="1">
          <mxGeometry x="1398" y="2080" width="320" height="80" as="geometry" />
        </mxCell>
        <mxCell id="cwS-GazdJx-M9K_oSaZ1-24" value="DTMWithBuildings" style="ellipse;whiteSpace=wrap;html=1;rounded=0;shadow=1;strokeColor=#666666;strokeWidth=4;fontSize=30;align=center;fillColor=#f5f5f5;" parent="1" vertex="1">
          <mxGeometry x="1810" y="2080" width="360" height="80" as="geometry" />
        </mxCell>
        <mxCell id="cwS-GazdJx-M9K_oSaZ1-25" style="edgeStyle=none;curved=1;html=1;startSize=10;endArrow=classic;endFill=1;endSize=10;strokeColor=#000000;strokeWidth=2;fontSize=12;exitX=1;exitY=0.5;exitDx=0;exitDy=0;entryX=0;entryY=0.5;entryDx=0;entryDy=0;" parent="1" source="cwS-GazdJx-M9K_oSaZ1-23" target="cwS-GazdJx-M9K_oSaZ1-24" edge="1">
          <mxGeometry relative="1" as="geometry">
            <mxPoint x="1698" y="2169.17" as="sourcePoint" />
            <mxPoint x="1798" y="2169" as="targetPoint" />
          </mxGeometry>
        </mxCell>
        <mxCell id="cwS-GazdJx-M9K_oSaZ1-28" value="Construction" style="ellipse;whiteSpace=wrap;html=1;rounded=0;shadow=1;strokeColor=#666666;strokeWidth=4;fontSize=30;align=center;fillColor=#f5f5f5;" parent="1" vertex="1">
          <mxGeometry x="-1597" y="120" width="360" height="80" as="geometry" />
        </mxCell>
        <mxCell id="cwS-GazdJx-M9K_oSaZ1-29" value="WaterDataCulverts" style="ellipse;whiteSpace=wrap;html=1;rounded=0;shadow=1;strokeColor=#666666;strokeWidth=4;fontSize=30;align=center;fillColor=#f5f5f5;" parent="1" vertex="1">
          <mxGeometry x="-1597" y="280" width="360" height="80" as="geometry" />
        </mxCell>
        <mxCell id="cwS-GazdJx-M9K_oSaZ1-30" value="RoadCulvertData" style="ellipse;whiteSpace=wrap;html=1;rounded=0;shadow=1;strokeColor=#666666;strokeWidth=4;fontSize=30;align=center;fillColor=#f5f5f5;" parent="1" vertex="1">
          <mxGeometry x="-750" y="440" width="360" height="80" as="geometry" />
        </mxCell>
        <mxCell id="cwS-GazdJx-M9K_oSaZ1-37" style="edgeStyle=none;curved=1;html=1;startSize=10;endArrow=classic;endFill=1;endSize=10;strokeColor=#000000;strokeWidth=2;fontSize=12;exitX=1;exitY=0.5;exitDx=0;exitDy=0;entryX=0;entryY=1;entryDx=0;entryDy=0;" parent="1" source="cwS-GazdJx-M9K_oSaZ1-30" target="cwS-GazdJx-M9K_oSaZ1-157" edge="1">
          <mxGeometry relative="1" as="geometry">
            <mxPoint x="-370" y="80" as="sourcePoint" />
            <mxPoint x="-317" y="360" as="targetPoint" />
          </mxGeometry>
        </mxCell>
        <mxCell id="cwS-GazdJx-M9K_oSaZ1-41" style="edgeStyle=none;curved=1;html=1;startSize=10;endArrow=classic;endFill=1;endSize=10;strokeColor=#000000;strokeWidth=2;fontSize=12;exitX=1;exitY=0.5;exitDx=0;exitDy=0;entryX=0;entryY=0.5;entryDx=0;entryDy=0;" parent="1" source="cwS-GazdJx-M9K_oSaZ1-14" target="cwS-GazdJx-M9K_oSaZ1-42" edge="1">
          <mxGeometry relative="1" as="geometry">
            <mxPoint x="-989.5" y="1551" as="sourcePoint" />
            <mxPoint x="-479.4999999999927" y="1540" as="targetPoint" />
          </mxGeometry>
        </mxCell>
        <mxCell id="cwS-GazdJx-M9K_oSaZ1-42" value="&lt;font style=&quot;font-size: 24px;&quot;&gt;Buffer50Meters&lt;/font&gt;" style="rounded=0;whiteSpace=wrap;html=1;" parent="1" vertex="1">
          <mxGeometry x="-280" y="1359" width="320" height="80" as="geometry" />
        </mxCell>
        <mxCell id="cwS-GazdJx-M9K_oSaZ1-43" value="RelevantArea" style="ellipse;whiteSpace=wrap;html=1;rounded=0;shadow=1;strokeColor=#666666;strokeWidth=4;fontSize=30;align=center;fillColor=#f5f5f5;" parent="1" vertex="1">
          <mxGeometry x="120" y="1358" width="360" height="80" as="geometry" />
        </mxCell>
        <mxCell id="cwS-GazdJx-M9K_oSaZ1-44" style="edgeStyle=none;curved=1;html=1;startSize=10;endArrow=classic;endFill=1;endSize=10;strokeColor=#000000;strokeWidth=2;fontSize=12;exitX=1;exitY=0.5;exitDx=0;exitDy=0;entryX=0;entryY=0.5;entryDx=0;entryDy=0;" parent="1" source="cwS-GazdJx-M9K_oSaZ1-42" target="cwS-GazdJx-M9K_oSaZ1-43" edge="1">
          <mxGeometry relative="1" as="geometry">
            <mxPoint x="-559.5" y="1551" as="sourcePoint" />
            <mxPoint x="-79.5" y="1541.000000000001" as="targetPoint" />
          </mxGeometry>
        </mxCell>
        <mxCell id="cwS-GazdJx-M9K_oSaZ1-47" value="&lt;span style=&quot;font-size: 24px;&quot;&gt;MergeVectorLayers&lt;/span&gt;" style="rounded=0;whiteSpace=wrap;html=1;" parent="1" vertex="1">
          <mxGeometry x="594" y="440" width="320" height="80" as="geometry" />
        </mxCell>
        <mxCell id="cwS-GazdJx-M9K_oSaZ1-63" style="edgeStyle=none;curved=1;html=1;startSize=10;endArrow=classic;endFill=1;endSize=10;strokeColor=#000000;strokeWidth=2;fontSize=12;exitX=1;exitY=0.5;exitDx=0;exitDy=0;entryX=0;entryY=1;entryDx=0;entryDy=0;" parent="1" source="cwS-GazdJx-M9K_oSaZ1-43" target="cwS-GazdJx-M9K_oSaZ1-16" edge="1">
          <mxGeometry relative="1" as="geometry">
            <mxPoint x="1115.5" y="1232" as="sourcePoint" />
            <mxPoint x="560" y="1480" as="targetPoint" />
          </mxGeometry>
        </mxCell>
        <mxCell id="cwS-GazdJx-M9K_oSaZ1-66" value="HeightWithCulverts" style="ellipse;whiteSpace=wrap;html=1;rounded=0;shadow=1;strokeColor=#666666;strokeWidth=4;fontSize=30;align=center;fillColor=#f5f5f5;" parent="1" vertex="1">
          <mxGeometry x="4750" y="1020" width="360" height="80" as="geometry" />
        </mxCell>
        <mxCell id="cwS-GazdJx-M9K_oSaZ1-68" value="HeightWithAllWater" style="ellipse;whiteSpace=wrap;html=1;rounded=0;shadow=1;strokeColor=#666666;strokeWidth=4;fontSize=30;align=center;fillColor=#f5f5f5;" parent="1" vertex="1">
          <mxGeometry x="4750" y="790" width="360" height="80" as="geometry" />
        </mxCell>
        <mxCell id="cwS-GazdJx-M9K_oSaZ1-74" value="Water" style="ellipse;whiteSpace=wrap;html=1;rounded=0;shadow=1;strokeColor=#666666;strokeWidth=4;fontSize=30;align=center;fillColor=#f5f5f5;" parent="1" vertex="1">
          <mxGeometry x="6510" y="1383" width="360" height="80" as="geometry" />
        </mxCell>
        <mxCell id="cwS-GazdJx-M9K_oSaZ1-75" value="&lt;font style=&quot;font-size: 24px;&quot;&gt;SelectFeaturesByExpression&lt;/font&gt;&lt;div&gt;&lt;font style=&quot;font-size: 24px;&quot;&gt;Area &amp;gt; 100000&lt;/font&gt;&lt;/div&gt;" style="rounded=0;whiteSpace=wrap;html=1;" parent="1" vertex="1">
          <mxGeometry x="6950" y="1383" width="320" height="80" as="geometry" />
        </mxCell>
        <mxCell id="cwS-GazdJx-M9K_oSaZ1-76" value="LargeWaterBodies" style="ellipse;whiteSpace=wrap;html=1;rounded=0;shadow=1;strokeColor=#666666;strokeWidth=4;fontSize=30;align=center;fillColor=#f5f5f5;" parent="1" vertex="1">
          <mxGeometry x="7350" y="1383" width="360" height="80" as="geometry" />
        </mxCell>
        <mxCell id="cwS-GazdJx-M9K_oSaZ1-77" style="edgeStyle=none;curved=1;html=1;startSize=10;endArrow=classic;endFill=1;endSize=10;strokeColor=#000000;strokeWidth=2;fontSize=12;exitX=1;exitY=0.5;exitDx=0;exitDy=0;entryX=0;entryY=0.5;entryDx=0;entryDy=0;" parent="1" source="cwS-GazdJx-M9K_oSaZ1-74" target="cwS-GazdJx-M9K_oSaZ1-75" edge="1">
          <mxGeometry relative="1" as="geometry">
            <mxPoint x="7280" y="669" as="sourcePoint" />
            <mxPoint x="7350" y="670" as="targetPoint" />
          </mxGeometry>
        </mxCell>
        <mxCell id="cwS-GazdJx-M9K_oSaZ1-78" style="edgeStyle=none;curved=1;html=1;startSize=10;endArrow=classic;endFill=1;endSize=10;strokeColor=#000000;strokeWidth=2;fontSize=12;exitX=1;exitY=0.5;exitDx=0;exitDy=0;entryX=0;entryY=0.5;entryDx=0;entryDy=0;" parent="1" source="cwS-GazdJx-M9K_oSaZ1-75" target="cwS-GazdJx-M9K_oSaZ1-76" edge="1">
          <mxGeometry relative="1" as="geometry">
            <mxPoint x="7290" y="679" as="sourcePoint" />
            <mxPoint x="7360" y="680" as="targetPoint" />
          </mxGeometry>
        </mxCell>
        <mxCell id="cwS-GazdJx-M9K_oSaZ1-80" value="WatershedsTerrain" style="ellipse;whiteSpace=wrap;html=1;rounded=0;shadow=1;strokeColor=#666666;strokeWidth=4;fontSize=30;align=center;fillColor=#f5f5f5;" parent="1" vertex="1">
          <mxGeometry x="8190" y="1061" width="350" height="80" as="geometry" />
        </mxCell>
        <mxCell id="cwS-GazdJx-M9K_oSaZ1-81" value="&lt;font style=&quot;font-size: 24px;&quot;&gt;DifferencePolygons&lt;/font&gt;" style="rounded=0;whiteSpace=wrap;html=1;" parent="1" vertex="1">
          <mxGeometry x="7790" y="1061" width="320" height="81" as="geometry" />
        </mxCell>
        <mxCell id="cwS-GazdJx-M9K_oSaZ1-85" value="&lt;font style=&quot;font-size: 24px;&quot;&gt;DissolveLayer&lt;/font&gt;" style="rounded=0;whiteSpace=wrap;html=1;" parent="1" vertex="1">
          <mxGeometry x="-1120" y="1358" width="320" height="81" as="geometry" />
        </mxCell>
        <mxCell id="cwS-GazdJx-M9K_oSaZ1-86" style="edgeStyle=none;curved=1;html=1;startSize=10;endArrow=classic;endFill=1;endSize=10;strokeColor=#000000;strokeWidth=2;fontSize=12;exitX=1;exitY=0.5;exitDx=0;exitDy=0;" parent="1" source="cwS-GazdJx-M9K_oSaZ1-81" edge="1">
          <mxGeometry relative="1" as="geometry">
            <mxPoint x="8110" y="590" as="sourcePoint" />
            <mxPoint x="8190" y="1101" as="targetPoint" />
          </mxGeometry>
        </mxCell>
        <mxCell id="cwS-GazdJx-M9K_oSaZ1-87" value="BuildingsPoint" style="ellipse;whiteSpace=wrap;html=1;rounded=0;shadow=1;strokeColor=#666666;strokeWidth=4;fontSize=30;align=center;fillColor=#f5f5f5;" parent="1" vertex="1">
          <mxGeometry x="-760" y="2030" width="360" height="80" as="geometry" />
        </mxCell>
        <mxCell id="cwS-GazdJx-M9K_oSaZ1-90" style="edgeStyle=none;curved=1;html=1;startSize=10;endArrow=classic;endFill=1;endSize=10;strokeColor=#000000;strokeWidth=2;fontSize=12;exitX=1;exitY=0.5;exitDx=0;exitDy=0;entryX=0;entryY=1;entryDx=0;entryDy=0;" parent="1" source="cwS-GazdJx-M9K_oSaZ1-76" target="cwS-GazdJx-M9K_oSaZ1-81" edge="1">
          <mxGeometry relative="1" as="geometry">
            <mxPoint x="6870" y="589" as="sourcePoint" />
            <mxPoint x="6940" y="981" as="targetPoint" />
          </mxGeometry>
        </mxCell>
        <mxCell id="cwS-GazdJx-M9K_oSaZ1-95" style="edgeStyle=none;curved=1;html=1;startSize=10;endArrow=classic;endFill=1;endSize=10;strokeColor=#000000;strokeWidth=2;fontSize=12;entryX=0;entryY=0.5;entryDx=0;entryDy=0;exitX=1;exitY=0.5;exitDx=0;exitDy=0;" parent="1" source="cwS-GazdJx-M9K_oSaZ1-85" target="cwS-GazdJx-M9K_oSaZ1-14" edge="1">
          <mxGeometry relative="1" as="geometry">
            <mxPoint x="-1200" y="1408" as="sourcePoint" />
            <mxPoint x="-1110" y="1409" as="targetPoint" />
          </mxGeometry>
        </mxCell>
        <mxCell id="cwS-GazdJx-M9K_oSaZ1-104" value="ConstructionCulverts" style="ellipse;whiteSpace=wrap;html=1;rounded=0;shadow=1;strokeColor=#666666;strokeWidth=4;fontSize=30;align=center;fillColor=#f5f5f5;" parent="1" vertex="1">
          <mxGeometry x="-757" y="120" width="360" height="80" as="geometry" />
        </mxCell>
        <mxCell id="cwS-GazdJx-M9K_oSaZ1-105" value="SubSurfaceWater" style="ellipse;whiteSpace=wrap;html=1;rounded=0;shadow=1;strokeColor=#666666;strokeWidth=4;fontSize=30;align=center;fillColor=#f5f5f5;" parent="1" vertex="1">
          <mxGeometry x="-757" y="280" width="360" height="80" as="geometry" />
        </mxCell>
        <mxCell id="cwS-GazdJx-M9K_oSaZ1-106" style="edgeStyle=none;curved=1;html=1;startSize=10;endArrow=classic;endFill=1;endSize=10;strokeColor=#000000;strokeWidth=2;fontSize=12;exitX=1;exitY=0.5;exitDx=0;exitDy=0;entryX=0;entryY=0.5;entryDx=0;entryDy=0;" parent="1" source="cwS-GazdJx-M9K_oSaZ1-105" target="cwS-GazdJx-M9K_oSaZ1-157" edge="1">
          <mxGeometry relative="1" as="geometry">
            <mxPoint x="-387" y="490" as="sourcePoint" />
            <mxPoint x="-317" y="320" as="targetPoint" />
          </mxGeometry>
        </mxCell>
        <mxCell id="cwS-GazdJx-M9K_oSaZ1-110" style="edgeStyle=none;curved=1;html=1;startSize=10;endArrow=classic;endFill=1;endSize=10;strokeColor=#000000;strokeWidth=2;fontSize=12;exitX=1;exitY=0.5;exitDx=0;exitDy=0;entryX=0;entryY=0.5;entryDx=0;entryDy=0;" parent="1" target="cwS-GazdJx-M9K_oSaZ1-104" edge="1">
          <mxGeometry relative="1" as="geometry">
            <mxPoint x="-837" y="160" as="sourcePoint" />
            <mxPoint x="-287" y="350" as="targetPoint" />
          </mxGeometry>
        </mxCell>
        <mxCell id="cwS-GazdJx-M9K_oSaZ1-111" style="edgeStyle=none;curved=1;html=1;startSize=10;endArrow=classic;endFill=1;endSize=10;strokeColor=#000000;strokeWidth=2;fontSize=12;exitX=1;exitY=0.5;exitDx=0;exitDy=0;entryX=0;entryY=0.5;entryDx=0;entryDy=0;" parent="1" target="cwS-GazdJx-M9K_oSaZ1-105" edge="1">
          <mxGeometry relative="1" as="geometry">
            <mxPoint x="-837" y="320" as="sourcePoint" />
            <mxPoint x="-277" y="360" as="targetPoint" />
          </mxGeometry>
        </mxCell>
        <mxCell id="cwS-GazdJx-M9K_oSaZ1-155" value="ConstructionData" style="ellipse;whiteSpace=wrap;html=1;rounded=0;shadow=1;strokeColor=#666666;strokeWidth=4;fontSize=30;align=center;fillColor=#f5f5f5;" parent="1" vertex="1">
          <mxGeometry x="-1594" y="120" width="360" height="80" as="geometry" />
        </mxCell>
        <mxCell id="cwS-GazdJx-M9K_oSaZ1-156" value="WaterData" style="ellipse;whiteSpace=wrap;html=1;rounded=0;shadow=1;strokeColor=#666666;strokeWidth=4;fontSize=30;align=center;fillColor=#f5f5f5;" parent="1" vertex="1">
          <mxGeometry x="-1594" y="280" width="360" height="80" as="geometry" />
        </mxCell>
        <mxCell id="cwS-GazdJx-M9K_oSaZ1-157" value="&lt;span style=&quot;font-size: 24px;&quot;&gt;MergeVectorLayers&lt;/span&gt;" style="rounded=0;whiteSpace=wrap;html=1;" parent="1" vertex="1">
          <mxGeometry x="-314" y="280" width="320" height="80" as="geometry" />
        </mxCell>
        <mxCell id="cwS-GazdJx-M9K_oSaZ1-158" value="Culverts" style="ellipse;whiteSpace=wrap;html=1;rounded=0;shadow=1;strokeColor=#666666;strokeWidth=4;fontSize=30;align=center;fillColor=#f5f5f5;" parent="1" vertex="1">
          <mxGeometry x="100" y="280" width="360" height="80" as="geometry" />
        </mxCell>
        <mxCell id="cwS-GazdJx-M9K_oSaZ1-159" style="edgeStyle=none;curved=1;html=1;startSize=10;endArrow=classic;endFill=1;endSize=10;strokeColor=#000000;strokeWidth=2;fontSize=12;exitX=1;exitY=0.5;exitDx=0;exitDy=0;entryX=0;entryY=0.5;entryDx=0;entryDy=0;" parent="1" source="cwS-GazdJx-M9K_oSaZ1-157" target="cwS-GazdJx-M9K_oSaZ1-158" edge="1">
          <mxGeometry relative="1" as="geometry">
            <mxPoint x="6" y="450" as="sourcePoint" />
            <mxPoint x="76" y="340" as="targetPoint" />
          </mxGeometry>
        </mxCell>
        <mxCell id="cwS-GazdJx-M9K_oSaZ1-161" value="WaterPolygons" style="ellipse;whiteSpace=wrap;html=1;rounded=0;shadow=1;strokeColor=#666666;strokeWidth=4;fontSize=30;align=center;fillColor=#f5f5f5;" parent="1" vertex="1">
          <mxGeometry x="100" y="440" width="360" height="80" as="geometry" />
        </mxCell>
        <mxCell id="cwS-GazdJx-M9K_oSaZ1-162" style="edgeStyle=none;curved=1;html=1;startSize=10;endArrow=classic;endFill=1;endSize=10;strokeColor=#000000;strokeWidth=2;fontSize=12;exitX=1;exitY=0.5;exitDx=0;exitDy=0;entryX=0;entryY=0.5;entryDx=0;entryDy=0;" parent="1" source="cwS-GazdJx-M9K_oSaZ1-161" target="cwS-GazdJx-M9K_oSaZ1-47" edge="1">
          <mxGeometry relative="1" as="geometry">
            <mxPoint x="423" y="150" as="sourcePoint" />
            <mxPoint x="493" y="350" as="targetPoint" />
          </mxGeometry>
        </mxCell>
        <mxCell id="cwS-GazdJx-M9K_oSaZ1-163" value="CulvertsAndWater" style="ellipse;whiteSpace=wrap;html=1;rounded=0;shadow=1;strokeColor=#666666;strokeWidth=4;fontSize=30;align=center;fillColor=#f5f5f5;" parent="1" vertex="1">
          <mxGeometry x="992" y="440" width="360" height="80" as="geometry" />
        </mxCell>
        <mxCell id="cwS-GazdJx-M9K_oSaZ1-164" style="edgeStyle=none;curved=1;html=1;startSize=10;endArrow=classic;endFill=1;endSize=10;strokeColor=#000000;strokeWidth=2;fontSize=12;exitX=1;exitY=0.5;exitDx=0;exitDy=0;entryX=0;entryY=0.5;entryDx=0;entryDy=0;" parent="1" target="cwS-GazdJx-M9K_oSaZ1-163" edge="1">
          <mxGeometry relative="1" as="geometry">
            <mxPoint x="912" y="480" as="sourcePoint" />
            <mxPoint x="602" y="530" as="targetPoint" />
          </mxGeometry>
        </mxCell>
        <mxCell id="cwS-GazdJx-M9K_oSaZ1-165" style="edgeStyle=none;curved=1;html=1;startSize=10;endArrow=classic;endFill=1;endSize=10;strokeColor=#000000;strokeWidth=2;fontSize=12;exitX=1;exitY=0.5;exitDx=0;exitDy=0;entryX=0;entryY=0;entryDx=0;entryDy=0;" parent="1" source="cwS-GazdJx-M9K_oSaZ1-158" target="cwS-GazdJx-M9K_oSaZ1-47" edge="1">
          <mxGeometry relative="1" as="geometry">
            <mxPoint x="457.5" y="80" as="sourcePoint" />
            <mxPoint x="579.5" y="360" as="targetPoint" />
          </mxGeometry>
        </mxCell>
        <mxCell id="cwS-GazdJx-M9K_oSaZ1-166" value="&lt;font style=&quot;font-size: 24px;&quot;&gt;SelectFeaturesByExpression&lt;/font&gt;" style="rounded=0;whiteSpace=wrap;html=1;" parent="1" vertex="1">
          <mxGeometry x="-1154" y="120" width="320" height="80" as="geometry" />
        </mxCell>
        <mxCell id="cwS-GazdJx-M9K_oSaZ1-167" value="&lt;font style=&quot;font-size: 24px;&quot;&gt;SelectFeaturesByExpression&lt;/font&gt;" style="rounded=0;whiteSpace=wrap;html=1;" parent="1" vertex="1">
          <mxGeometry x="-1154" y="280" width="320" height="80" as="geometry" />
        </mxCell>
        <mxCell id="cwS-GazdJx-M9K_oSaZ1-168" value="ConstructionCulverts" style="ellipse;whiteSpace=wrap;html=1;rounded=0;shadow=1;strokeColor=#666666;strokeWidth=4;fontSize=30;align=center;fillColor=#f5f5f5;" parent="1" vertex="1">
          <mxGeometry x="-754" y="120" width="360" height="80" as="geometry" />
        </mxCell>
        <mxCell id="cwS-GazdJx-M9K_oSaZ1-169" value="SubSurfaceWater" style="ellipse;whiteSpace=wrap;html=1;rounded=0;shadow=1;strokeColor=#666666;strokeWidth=4;fontSize=30;align=center;fillColor=#f5f5f5;" parent="1" vertex="1">
          <mxGeometry x="-754" y="280" width="360" height="80" as="geometry" />
        </mxCell>
        <mxCell id="cwS-GazdJx-M9K_oSaZ1-171" style="edgeStyle=none;curved=1;html=1;startSize=10;endArrow=classic;endFill=1;endSize=10;strokeColor=#000000;strokeWidth=2;fontSize=12;exitX=1;exitY=0.5;exitDx=0;exitDy=0;entryX=0;entryY=0;entryDx=0;entryDy=0;" parent="1" source="cwS-GazdJx-M9K_oSaZ1-168" target="cwS-GazdJx-M9K_oSaZ1-157" edge="1">
          <mxGeometry relative="1" as="geometry">
            <mxPoint x="-374" y="500" as="sourcePoint" />
            <mxPoint x="-294" y="380" as="targetPoint" />
          </mxGeometry>
        </mxCell>
        <mxCell id="cwS-GazdJx-M9K_oSaZ1-172" style="edgeStyle=none;curved=1;html=1;startSize=10;endArrow=classic;endFill=1;endSize=10;strokeColor=#000000;strokeWidth=2;fontSize=12;exitX=1;exitY=0.5;exitDx=0;exitDy=0;entryX=0;entryY=0.5;entryDx=0;entryDy=0;" parent="1" source="cwS-GazdJx-M9K_oSaZ1-155" target="cwS-GazdJx-M9K_oSaZ1-166" edge="1">
          <mxGeometry relative="1" as="geometry">
            <mxPoint x="-384" y="330" as="sourcePoint" />
            <mxPoint x="-304" y="330" as="targetPoint" />
          </mxGeometry>
        </mxCell>
        <mxCell id="cwS-GazdJx-M9K_oSaZ1-173" style="edgeStyle=none;curved=1;html=1;startSize=10;endArrow=classic;endFill=1;endSize=10;strokeColor=#000000;strokeWidth=2;fontSize=12;exitX=1;exitY=0.5;exitDx=0;exitDy=0;entryX=0;entryY=0.5;entryDx=0;entryDy=0;" parent="1" source="cwS-GazdJx-M9K_oSaZ1-156" target="cwS-GazdJx-M9K_oSaZ1-167" edge="1">
          <mxGeometry relative="1" as="geometry">
            <mxPoint x="-374" y="340" as="sourcePoint" />
            <mxPoint x="-294" y="340" as="targetPoint" />
          </mxGeometry>
        </mxCell>
        <mxCell id="cwS-GazdJx-M9K_oSaZ1-174" style="edgeStyle=none;curved=1;html=1;startSize=10;endArrow=classic;endFill=1;endSize=10;strokeColor=#000000;strokeWidth=2;fontSize=12;exitX=1;exitY=0.5;exitDx=0;exitDy=0;entryX=0;entryY=0.5;entryDx=0;entryDy=0;" parent="1" source="cwS-GazdJx-M9K_oSaZ1-166" target="cwS-GazdJx-M9K_oSaZ1-168" edge="1">
          <mxGeometry relative="1" as="geometry">
            <mxPoint x="-364" y="350" as="sourcePoint" />
            <mxPoint x="-284" y="350" as="targetPoint" />
          </mxGeometry>
        </mxCell>
        <mxCell id="cwS-GazdJx-M9K_oSaZ1-175" style="edgeStyle=none;curved=1;html=1;startSize=10;endArrow=classic;endFill=1;endSize=10;strokeColor=#000000;strokeWidth=2;fontSize=12;exitX=1;exitY=0.5;exitDx=0;exitDy=0;entryX=0;entryY=0.5;entryDx=0;entryDy=0;" parent="1" source="cwS-GazdJx-M9K_oSaZ1-167" target="cwS-GazdJx-M9K_oSaZ1-169" edge="1">
          <mxGeometry relative="1" as="geometry">
            <mxPoint x="-354" y="360" as="sourcePoint" />
            <mxPoint x="-274" y="360" as="targetPoint" />
          </mxGeometry>
        </mxCell>
        <mxCell id="cwS-GazdJx-M9K_oSaZ1-189" value="&lt;span style=&quot;font-size: 24px;&quot;&gt;RasterDifferences&lt;/span&gt;" style="rounded=0;whiteSpace=wrap;html=1;" parent="1" vertex="1">
          <mxGeometry x="5150" y="1659" width="320" height="80" as="geometry" />
        </mxCell>
        <mxCell id="cwS-GazdJx-M9K_oSaZ1-190" style="edgeStyle=none;curved=1;html=1;startSize=10;endArrow=classic;endFill=1;endSize=10;strokeColor=#000000;strokeWidth=2;fontSize=12;entryX=0;entryY=0;entryDx=0;entryDy=0;exitX=1;exitY=1;exitDx=0;exitDy=0;" parent="1" source="cwS-GazdJx-M9K_oSaZ1-223" target="cwS-GazdJx-M9K_oSaZ1-189" edge="1">
          <mxGeometry relative="1" as="geometry">
            <mxPoint x="5050" y="1510" as="sourcePoint" />
            <mxPoint x="5560" y="1430" as="targetPoint" />
          </mxGeometry>
        </mxCell>
        <mxCell id="cwS-GazdJx-M9K_oSaZ1-192" value="Depressions" style="ellipse;whiteSpace=wrap;html=1;rounded=0;shadow=1;strokeColor=#666666;strokeWidth=4;fontSize=30;align=center;fillColor=#f5f5f5;" parent="1" vertex="1">
          <mxGeometry x="5540" y="1860" width="360" height="80" as="geometry" />
        </mxCell>
        <mxCell id="cwS-GazdJx-M9K_oSaZ1-193" style="edgeStyle=none;curved=1;html=1;startSize=10;endArrow=classic;endFill=1;endSize=10;strokeColor=#000000;strokeWidth=2;fontSize=12;exitX=1;exitY=0.5;exitDx=0;exitDy=0;entryX=0;entryY=0;entryDx=0;entryDy=0;" parent="1" source="cwS-GazdJx-M9K_oSaZ1-189" target="cwS-GazdJx-M9K_oSaZ1-192" edge="1">
          <mxGeometry relative="1" as="geometry">
            <mxPoint x="5080" y="1430" as="sourcePoint" />
            <mxPoint x="5560" y="1430" as="targetPoint" />
          </mxGeometry>
        </mxCell>
        <mxCell id="cwS-GazdJx-M9K_oSaZ1-196" value="&lt;font style=&quot;font-size: 72px;&quot;&gt;1:Find DTM for Relevant Area&lt;/font&gt;" style="text;html=1;align=center;verticalAlign=middle;whiteSpace=wrap;rounded=0;" parent="1" vertex="1">
          <mxGeometry x="360" y="1493.5" width="974" height="50" as="geometry" />
        </mxCell>
        <mxCell id="cwS-GazdJx-M9K_oSaZ1-197" value="&lt;font style=&quot;font-size: 72px;&quot;&gt;3: Add Culvert Data&lt;/font&gt;" style="text;html=1;align=center;verticalAlign=middle;whiteSpace=wrap;rounded=0;" parent="1" vertex="1">
          <mxGeometry x="2430" y="595" width="640" height="50" as="geometry" />
        </mxCell>
        <mxCell id="cwS-GazdJx-M9K_oSaZ1-198" value="&lt;font style=&quot;font-size: 72px;&quot;&gt;Drainage&lt;/font&gt;&lt;div&gt;&lt;font style=&quot;font-size: 72px;&quot;&gt;Analysis&lt;/font&gt;&lt;/div&gt;" style="ellipse;whiteSpace=wrap;html=1;aspect=fixed;strokeColor=#D1D1D1;fillColor=#D1D1D1;" parent="1" vertex="1">
          <mxGeometry x="5540" y="926" width="350" height="350" as="geometry" />
        </mxCell>
        <mxCell id="cwS-GazdJx-M9K_oSaZ1-199" style="edgeStyle=none;curved=1;html=1;startSize=10;endArrow=classic;endFill=1;endSize=10;strokeColor=#000000;strokeWidth=2;fontSize=12;exitX=1;exitY=0.5;exitDx=0;exitDy=0;entryX=0;entryY=1;entryDx=0;entryDy=0;" parent="1" source="cwS-GazdJx-M9K_oSaZ1-223" target="cwS-GazdJx-M9K_oSaZ1-198" edge="1">
          <mxGeometry relative="1" as="geometry">
            <mxPoint x="5857.279220613578" y="1391.715728752537" as="sourcePoint" />
            <mxPoint x="5560" y="1430" as="targetPoint" />
          </mxGeometry>
        </mxCell>
        <mxCell id="cwS-GazdJx-M9K_oSaZ1-200" style="edgeStyle=none;curved=1;html=1;startSize=10;endArrow=classic;endFill=1;endSize=10;strokeColor=#000000;strokeWidth=2;fontSize=12;exitX=1;exitY=0.5;exitDx=0;exitDy=0;entryX=0;entryY=0;entryDx=0;entryDy=0;" parent="1" source="cwS-GazdJx-M9K_oSaZ1-68" target="cwS-GazdJx-M9K_oSaZ1-198" edge="1">
          <mxGeometry relative="1" as="geometry">
            <mxPoint x="5867" y="1402" as="sourcePoint" />
            <mxPoint x="6131" y="1235" as="targetPoint" />
          </mxGeometry>
        </mxCell>
        <mxCell id="cwS-GazdJx-M9K_oSaZ1-201" style="edgeStyle=none;curved=1;html=1;startSize=10;endArrow=classic;endFill=1;endSize=10;strokeColor=#000000;strokeWidth=2;fontSize=12;exitX=1;exitY=0.5;exitDx=0;exitDy=0;entryX=0;entryY=0.5;entryDx=0;entryDy=0;" parent="1" source="cwS-GazdJx-M9K_oSaZ1-66" target="cwS-GazdJx-M9K_oSaZ1-198" edge="1">
          <mxGeometry relative="1" as="geometry">
            <mxPoint x="5920" y="1111" as="sourcePoint" />
            <mxPoint x="6080" y="1111" as="targetPoint" />
          </mxGeometry>
        </mxCell>
        <mxCell id="cwS-GazdJx-M9K_oSaZ1-203" value="&lt;span style=&quot;font-size: 24px;&quot;&gt;RasterizeTo10meters&lt;/span&gt;" style="rounded=0;whiteSpace=wrap;html=1;" parent="1" vertex="1">
          <mxGeometry x="-290" y="2271" width="320" height="80" as="geometry" />
        </mxCell>
        <mxCell id="cwS-GazdJx-M9K_oSaZ1-204" value="BuildingsPolygonRaster" style="ellipse;whiteSpace=wrap;html=1;rounded=0;shadow=1;strokeColor=#666666;strokeWidth=4;fontSize=30;align=center;fillColor=#f5f5f5;" parent="1" vertex="1">
          <mxGeometry x="110" y="2271" width="360" height="80" as="geometry" />
        </mxCell>
        <mxCell id="cwS-GazdJx-M9K_oSaZ1-205" style="edgeStyle=none;curved=1;html=1;startSize=10;endArrow=classic;endFill=1;endSize=10;strokeColor=#000000;strokeWidth=2;fontSize=12;exitX=1;exitY=0.5;exitDx=0;exitDy=0;entryX=0;entryY=0.5;entryDx=0;entryDy=0;" parent="1" source="cwS-GazdJx-M9K_oSaZ1-87" target="cwS-GazdJx-M9K_oSaZ1-209" edge="1">
          <mxGeometry relative="1" as="geometry">
            <mxPoint x="-369.9999999999918" y="2190" as="sourcePoint" />
            <mxPoint x="120" y="1959" as="targetPoint" />
          </mxGeometry>
        </mxCell>
        <mxCell id="cwS-GazdJx-M9K_oSaZ1-206" style="edgeStyle=none;curved=1;html=1;startSize=10;endArrow=classic;endFill=1;endSize=10;strokeColor=#000000;strokeWidth=2;fontSize=12;exitX=1;exitY=0.5;exitDx=0;exitDy=0;entryX=0;entryY=0.5;entryDx=0;entryDy=0;" parent="1" source="cwS-GazdJx-M9K_oSaZ1-203" target="cwS-GazdJx-M9K_oSaZ1-204" edge="1">
          <mxGeometry relative="1" as="geometry">
            <mxPoint x="60" y="1968" as="sourcePoint" />
            <mxPoint x="130" y="1969" as="targetPoint" />
          </mxGeometry>
        </mxCell>
        <mxCell id="cwS-GazdJx-M9K_oSaZ1-207" value="BuildingsPolygon" style="ellipse;whiteSpace=wrap;html=1;rounded=0;shadow=1;strokeColor=#666666;strokeWidth=4;fontSize=30;align=center;fillColor=#f5f5f5;" parent="1" vertex="1">
          <mxGeometry x="-770" y="2271" width="360" height="80" as="geometry" />
        </mxCell>
        <mxCell id="cwS-GazdJx-M9K_oSaZ1-208" style="edgeStyle=none;curved=1;html=1;startSize=10;endArrow=classic;endFill=1;endSize=10;strokeColor=#000000;strokeWidth=2;fontSize=12;exitX=1;exitY=0.5;exitDx=0;exitDy=0;entryX=0;entryY=0.5;entryDx=0;entryDy=0;" parent="1" source="cwS-GazdJx-M9K_oSaZ1-207" target="cwS-GazdJx-M9K_oSaZ1-203" edge="1">
          <mxGeometry relative="1" as="geometry">
            <mxPoint x="-379.9999999999918" y="2431" as="sourcePoint" />
            <mxPoint x="-300" y="2431" as="targetPoint" />
          </mxGeometry>
        </mxCell>
        <mxCell id="cwS-GazdJx-M9K_oSaZ1-209" value="&lt;font style=&quot;font-size: 24px;&quot;&gt;RasterizeTo10meters&lt;/font&gt;" style="rounded=0;whiteSpace=wrap;html=1;" parent="1" vertex="1">
          <mxGeometry x="-290" y="2030" width="320" height="80" as="geometry" />
        </mxCell>
        <mxCell id="cwS-GazdJx-M9K_oSaZ1-210" value="BuildingsPointRaster" style="ellipse;whiteSpace=wrap;html=1;rounded=0;shadow=1;strokeColor=#666666;strokeWidth=4;fontSize=30;align=center;fillColor=#f5f5f5;" parent="1" vertex="1">
          <mxGeometry x="110" y="2030" width="360" height="80" as="geometry" />
        </mxCell>
        <mxCell id="cwS-GazdJx-M9K_oSaZ1-211" style="edgeStyle=none;curved=1;html=1;startSize=10;endArrow=classic;endFill=1;endSize=10;strokeColor=#000000;strokeWidth=2;fontSize=12;exitX=1;exitY=0.5;exitDx=0;exitDy=0;entryX=0;entryY=0.5;entryDx=0;entryDy=0;" parent="1" source="cwS-GazdJx-M9K_oSaZ1-209" target="cwS-GazdJx-M9K_oSaZ1-210" edge="1">
          <mxGeometry relative="1" as="geometry">
            <mxPoint x="40" y="2131" as="sourcePoint" />
            <mxPoint x="120" y="2131" as="targetPoint" />
          </mxGeometry>
        </mxCell>
        <mxCell id="cwS-GazdJx-M9K_oSaZ1-212" value="&lt;font style=&quot;font-size: 24px;&quot;&gt;RasterCalcAdd&lt;/font&gt;" style="rounded=0;whiteSpace=wrap;html=1;" parent="1" vertex="1">
          <mxGeometry x="560" y="2150" width="320" height="80" as="geometry" />
        </mxCell>
        <mxCell id="cwS-GazdJx-M9K_oSaZ1-213" style="edgeStyle=none;curved=1;html=1;startSize=10;endArrow=classic;endFill=1;endSize=10;strokeColor=#000000;strokeWidth=2;fontSize=12;exitX=1;exitY=0.5;exitDx=0;exitDy=0;entryX=0;entryY=0.5;entryDx=0;entryDy=0;" parent="1" source="cwS-GazdJx-M9K_oSaZ1-210" target="cwS-GazdJx-M9K_oSaZ1-212" edge="1">
          <mxGeometry relative="1" as="geometry">
            <mxPoint x="490" y="2161" as="sourcePoint" />
            <mxPoint x="570" y="2161" as="targetPoint" />
          </mxGeometry>
        </mxCell>
        <mxCell id="cwS-GazdJx-M9K_oSaZ1-214" style="edgeStyle=none;curved=1;html=1;startSize=10;endArrow=classic;endFill=1;endSize=10;strokeColor=#000000;strokeWidth=2;fontSize=12;exitX=1;exitY=0.5;exitDx=0;exitDy=0;entryX=0;entryY=0.5;entryDx=0;entryDy=0;" parent="1" source="cwS-GazdJx-M9K_oSaZ1-204" target="cwS-GazdJx-M9K_oSaZ1-212" edge="1">
          <mxGeometry relative="1" as="geometry">
            <mxPoint x="480" y="2080" as="sourcePoint" />
            <mxPoint x="570" y="2200" as="targetPoint" />
          </mxGeometry>
        </mxCell>
        <mxCell id="cwS-GazdJx-M9K_oSaZ1-215" style="edgeStyle=none;curved=1;html=1;startSize=10;endArrow=classic;endFill=1;endSize=10;strokeColor=#000000;strokeWidth=2;fontSize=12;exitX=1;exitY=0.5;exitDx=0;exitDy=0;" parent="1" source="cwS-GazdJx-M9K_oSaZ1-212" edge="1">
          <mxGeometry relative="1" as="geometry">
            <mxPoint x="910" y="2181" as="sourcePoint" />
            <mxPoint x="960" y="2191" as="targetPoint" />
          </mxGeometry>
        </mxCell>
        <mxCell id="cwS-GazdJx-M9K_oSaZ1-216" value="BuildingsRaster" style="ellipse;whiteSpace=wrap;html=1;rounded=0;shadow=1;strokeColor=#666666;strokeWidth=4;fontSize=30;align=center;fillColor=#f5f5f5;" parent="1" vertex="1">
          <mxGeometry x="960" y="2150" width="360" height="80" as="geometry" />
        </mxCell>
        <mxCell id="cwS-GazdJx-M9K_oSaZ1-220" value="&lt;span style=&quot;font-size: 72px;&quot;&gt;2: Add Buildings&lt;/span&gt;" style="text;html=1;align=center;verticalAlign=middle;whiteSpace=wrap;rounded=0;" parent="1" vertex="1">
          <mxGeometry x="1670" y="2351" width="530" height="50" as="geometry" />
        </mxCell>
        <mxCell id="cwS-GazdJx-M9K_oSaZ1-222" value="&lt;font style=&quot;font-size: 24px;&quot;&gt;DepressionFill&lt;/font&gt;" style="rounded=0;whiteSpace=wrap;html=1;" parent="1" vertex="1">
          <mxGeometry x="4350" y="1380" width="320" height="80" as="geometry" />
        </mxCell>
        <mxCell id="cwS-GazdJx-M9K_oSaZ1-223" value="FilledRaster" style="ellipse;whiteSpace=wrap;html=1;rounded=0;shadow=1;strokeColor=#666666;strokeWidth=4;fontSize=30;align=center;fillColor=#f5f5f5;" parent="1" vertex="1">
          <mxGeometry x="4750" y="1380" width="360" height="80" as="geometry" />
        </mxCell>
        <mxCell id="cwS-GazdJx-M9K_oSaZ1-224" style="edgeStyle=none;curved=1;html=1;startSize=10;endArrow=classic;endFill=1;endSize=10;strokeColor=#000000;strokeWidth=2;fontSize=12;exitX=1;exitY=0.5;exitDx=0;exitDy=0;entryX=0;entryY=0.5;entryDx=0;entryDy=0;" parent="1" source="cwS-GazdJx-M9K_oSaZ1-222" target="cwS-GazdJx-M9K_oSaZ1-223" edge="1">
          <mxGeometry relative="1" as="geometry">
            <mxPoint x="4650" y="1399.17" as="sourcePoint" />
            <mxPoint x="4750" y="1399" as="targetPoint" />
          </mxGeometry>
        </mxCell>
        <mxCell id="cwS-GazdJx-M9K_oSaZ1-227" style="edgeStyle=none;curved=1;html=1;startSize=10;endArrow=classic;endFill=1;endSize=10;strokeColor=#000000;strokeWidth=2;fontSize=12;exitX=1;exitY=0.5;exitDx=0;exitDy=0;entryX=0;entryY=0.5;entryDx=0;entryDy=0;" parent="1" source="cwS-GazdJx-M9K_oSaZ1-216" target="cwS-GazdJx-M9K_oSaZ1-23" edge="1">
          <mxGeometry relative="1" as="geometry">
            <mxPoint x="1315" y="2240" as="sourcePoint" />
            <mxPoint x="1395" y="2240" as="targetPoint" />
          </mxGeometry>
        </mxCell>
        <mxCell id="cwS-GazdJx-M9K_oSaZ1-230" value="&lt;span style=&quot;font-size: 72px;&quot;&gt;SAGA GIS&lt;/span&gt;" style="text;html=1;align=center;verticalAlign=middle;whiteSpace=wrap;rounded=0;strokeColor=#FFFFFF;" parent="1" vertex="1">
          <mxGeometry x="5560" y="690" width="360" height="50" as="geometry" />
        </mxCell>
        <mxCell id="dGOjUrgQt7nrRHNF7wcj-5" style="edgeStyle=none;curved=1;html=1;startSize=10;endArrow=classic;endFill=1;endSize=10;strokeColor=#000000;strokeWidth=2;fontSize=12;exitX=1;exitY=0.5;exitDx=0;exitDy=0;entryX=0;entryY=0.5;entryDx=0;entryDy=0;" parent="1" source="cwS-GazdJx-M9K_oSaZ1-6" target="cwS-GazdJx-M9K_oSaZ1-85" edge="1">
          <mxGeometry relative="1" as="geometry">
            <mxPoint x="-1620" y="1931" as="sourcePoint" />
            <mxPoint x="-1540" y="1930" as="targetPoint" />
          </mxGeometry>
        </mxCell>
        <mxCell id="dGOjUrgQt7nrRHNF7wcj-8" value="&lt;font style=&quot;font-size: 24px;&quot;&gt;DepressionFill&lt;/font&gt;" style="rounded=0;whiteSpace=wrap;html=1;" parent="1" vertex="1">
          <mxGeometry x="4350" y="790" width="320" height="80" as="geometry" />
        </mxCell>
        <mxCell id="dGOjUrgQt7nrRHNF7wcj-9" value="&lt;font style=&quot;font-size: 24px;&quot;&gt;DepressionFill&lt;/font&gt;" style="rounded=0;whiteSpace=wrap;html=1;" parent="1" vertex="1">
          <mxGeometry x="4350" y="1020" width="320" height="80" as="geometry" />
        </mxCell>
        <mxCell id="uhEIaL-xd1q_0e1Sa6o6-1" style="edgeStyle=none;curved=1;html=1;startSize=10;endArrow=classic;endFill=1;endSize=10;strokeColor=#000000;strokeWidth=2;fontSize=12;exitX=1;exitY=0.5;exitDx=0;exitDy=0;entryX=0;entryY=0.5;entryDx=0;entryDy=0;" parent="1" source="dGOjUrgQt7nrRHNF7wcj-8" target="cwS-GazdJx-M9K_oSaZ1-68" edge="1">
          <mxGeometry relative="1" as="geometry">
            <mxPoint x="5120" y="840" as="sourcePoint" />
            <mxPoint x="6131" y="987" as="targetPoint" />
          </mxGeometry>
        </mxCell>
        <mxCell id="uhEIaL-xd1q_0e1Sa6o6-2" style="edgeStyle=none;curved=1;html=1;startSize=10;endArrow=classic;endFill=1;endSize=10;strokeColor=#000000;strokeWidth=2;fontSize=12;exitX=1;exitY=0.5;exitDx=0;exitDy=0;entryX=0;entryY=0.5;entryDx=0;entryDy=0;" parent="1" source="dGOjUrgQt7nrRHNF7wcj-9" target="cwS-GazdJx-M9K_oSaZ1-66" edge="1">
          <mxGeometry relative="1" as="geometry">
            <mxPoint x="5120" y="840" as="sourcePoint" />
            <mxPoint x="4770" y="1060" as="targetPoint" />
          </mxGeometry>
        </mxCell>
        <mxCell id="uhEIaL-xd1q_0e1Sa6o6-4" value="&lt;span style=&quot;font-size: 24px;&quot;&gt;DrainageChannels&lt;/span&gt;" style="rounded=0;whiteSpace=wrap;html=1;" parent="1" vertex="1">
          <mxGeometry x="6510" y="1061" width="320" height="80" as="geometry" />
        </mxCell>
        <mxCell id="uhEIaL-xd1q_0e1Sa6o6-5" style="edgeStyle=none;curved=1;html=1;startSize=10;endArrow=classic;endFill=1;endSize=10;strokeColor=#000000;strokeWidth=2;fontSize=12;exitX=1;exitY=0.5;exitDx=0;exitDy=0;entryX=0;entryY=0.5;entryDx=0;entryDy=0;" parent="1" source="cwS-GazdJx-M9K_oSaZ1-198" target="uhEIaL-xd1q_0e1Sa6o6-4" edge="1">
          <mxGeometry relative="1" as="geometry">
            <mxPoint x="2960" y="1430" as="sourcePoint" />
            <mxPoint x="3040" y="1430" as="targetPoint" />
          </mxGeometry>
        </mxCell>
        <mxCell id="uhEIaL-xd1q_0e1Sa6o6-6" style="edgeStyle=none;curved=1;html=1;startSize=10;endArrow=classic;endFill=1;endSize=10;strokeColor=#000000;strokeWidth=2;fontSize=12;exitX=1;exitY=0.5;exitDx=0;exitDy=0;entryX=0;entryY=0.5;entryDx=0;entryDy=0;" parent="1" source="uhEIaL-xd1q_0e1Sa6o6-4" target="cwS-GazdJx-M9K_oSaZ1-81" edge="1">
          <mxGeometry relative="1" as="geometry">
            <mxPoint x="6440" y="1111" as="sourcePoint" />
            <mxPoint x="6910" y="1101" as="targetPoint" />
          </mxGeometry>
        </mxCell>
        <mxCell id="KTxONo4sn2NWJhOKo6dB-5" style="edgeStyle=none;curved=1;html=1;startSize=10;endArrow=classic;endFill=1;endSize=10;strokeColor=#000000;strokeWidth=2;fontSize=12;exitX=1;exitY=0.5;exitDx=0;exitDy=0;entryX=0;entryY=0.5;entryDx=0;entryDy=0;" parent="1" source="cwS-GazdJx-M9K_oSaZ1-158" target="mBHWe2FFzVWGOts86Ibf-19" edge="1">
          <mxGeometry relative="1" as="geometry">
            <mxPoint x="1081.5" y="69.09000000000003" as="sourcePoint" />
            <mxPoint x="1032" y="70" as="targetPoint" />
          </mxGeometry>
        </mxCell>
        <mxCell id="KTxONo4sn2NWJhOKo6dB-6" value="ClippedHeightRaster" style="ellipse;whiteSpace=wrap;html=1;rounded=0;shadow=1;strokeColor=#666666;strokeWidth=4;fontSize=30;align=center;fillColor=#f5f5f5;" parent="1" vertex="1">
          <mxGeometry x="960" y="1990" width="360" height="80" as="geometry" />
        </mxCell>
        <mxCell id="KTxONo4sn2NWJhOKo6dB-7" style="edgeStyle=none;curved=1;html=1;startSize=10;endArrow=classic;endFill=1;endSize=10;strokeColor=#000000;strokeWidth=2;fontSize=12;exitX=1;exitY=0.5;exitDx=0;exitDy=0;entryX=0;entryY=0.5;entryDx=0;entryDy=0;" parent="1" source="KTxONo4sn2NWJhOKo6dB-6" target="cwS-GazdJx-M9K_oSaZ1-23" edge="1">
          <mxGeometry relative="1" as="geometry">
            <mxPoint x="1330" y="2200" as="sourcePoint" />
            <mxPoint x="1408" y="2130" as="targetPoint" />
          </mxGeometry>
        </mxCell>
        <mxCell id="KTxONo4sn2NWJhOKo6dB-8" value="CulvertsAndWater-10" style="ellipse;whiteSpace=wrap;html=1;rounded=0;shadow=1;strokeColor=#666666;strokeWidth=4;fontSize=30;align=center;fillColor=#f5f5f5;" parent="1" vertex="1">
          <mxGeometry x="1840" y="440" width="360" height="80" as="geometry" />
        </mxCell>
        <mxCell id="KTxONo4sn2NWJhOKo6dB-9" value="Culverts-10" style="ellipse;whiteSpace=wrap;html=1;rounded=0;shadow=1;strokeColor=#666666;strokeWidth=4;fontSize=30;align=center;fillColor=#f5f5f5;" parent="1" vertex="1">
          <mxGeometry x="1840" y="130" width="360" height="80" as="geometry" />
        </mxCell>
        <mxCell id="mBHWe2FFzVWGOts86Ibf-1" value="DTMWithBuildings" style="ellipse;whiteSpace=wrap;html=1;rounded=0;shadow=1;strokeColor=#666666;strokeWidth=4;fontSize=30;align=center;fillColor=#f5f5f5;" vertex="1" parent="1">
          <mxGeometry x="1840" y="280" width="360" height="80" as="geometry" />
        </mxCell>
        <mxCell id="mBHWe2FFzVWGOts86Ibf-15" style="edgeStyle=none;curved=1;html=1;startSize=10;endArrow=classic;endFill=1;endSize=10;strokeColor=#000000;strokeWidth=2;fontSize=12;exitX=1;exitY=0.5;exitDx=0;exitDy=0;entryX=0;entryY=0.5;entryDx=0;entryDy=0;" edge="1" parent="1" source="mBHWe2FFzVWGOts86Ibf-16" target="KTxONo4sn2NWJhOKo6dB-9">
          <mxGeometry relative="1" as="geometry">
            <mxPoint x="1760" y="169" as="sourcePoint" />
            <mxPoint x="1840" y="169" as="targetPoint" />
          </mxGeometry>
        </mxCell>
        <mxCell id="mBHWe2FFzVWGOts86Ibf-16" value="&lt;font style=&quot;font-size: 24px;&quot;&gt;RasterizeTo-&lt;/font&gt;&lt;span style=&quot;font-size: 24px; background-color: initial;&quot;&gt;10meters&lt;/span&gt;" style="rounded=0;whiteSpace=wrap;html=1;" vertex="1" parent="1">
          <mxGeometry x="1440" y="130" width="320" height="80" as="geometry" />
        </mxCell>
        <mxCell id="mBHWe2FFzVWGOts86Ibf-17" value="&lt;font style=&quot;font-size: 24px;&quot;&gt;RasterizeTo-&lt;/font&gt;&lt;span style=&quot;font-size: 24px; background-color: initial;&quot;&gt;10meters&lt;/span&gt;" style="rounded=0;whiteSpace=wrap;html=1;" vertex="1" parent="1">
          <mxGeometry x="1440" y="440" width="320" height="80" as="geometry" />
        </mxCell>
        <mxCell id="mBHWe2FFzVWGOts86Ibf-18" style="edgeStyle=none;curved=1;html=1;startSize=10;endArrow=classic;endFill=1;endSize=10;strokeColor=#000000;strokeWidth=2;fontSize=12;exitX=1;exitY=0.5;exitDx=0;exitDy=0;entryX=0;entryY=0.5;entryDx=0;entryDy=0;" edge="1" parent="1" source="mBHWe2FFzVWGOts86Ibf-17" target="KTxONo4sn2NWJhOKo6dB-8">
          <mxGeometry relative="1" as="geometry">
            <mxPoint x="1760" y="479.5" as="sourcePoint" />
            <mxPoint x="1840" y="479.5" as="targetPoint" />
          </mxGeometry>
        </mxCell>
        <mxCell id="mBHWe2FFzVWGOts86Ibf-19" value="CulvertsAndWater" style="ellipse;whiteSpace=wrap;html=1;rounded=0;shadow=1;strokeColor=#666666;strokeWidth=4;fontSize=30;align=center;fillColor=#f5f5f5;" vertex="1" parent="1">
          <mxGeometry x="992" y="130" width="360" height="80" as="geometry" />
        </mxCell>
        <mxCell id="mBHWe2FFzVWGOts86Ibf-20" style="edgeStyle=none;curved=1;html=1;startSize=10;endArrow=classic;endFill=1;endSize=10;strokeColor=#000000;strokeWidth=2;fontSize=12;exitX=1;exitY=0.5;exitDx=0;exitDy=0;entryX=0;entryY=0.5;entryDx=0;entryDy=0;" edge="1" parent="1" source="cwS-GazdJx-M9K_oSaZ1-163" target="mBHWe2FFzVWGOts86Ibf-17">
          <mxGeometry relative="1" as="geometry">
            <mxPoint x="1360" y="479.44" as="sourcePoint" />
            <mxPoint x="1440" y="479.44" as="targetPoint" />
          </mxGeometry>
        </mxCell>
        <mxCell id="mBHWe2FFzVWGOts86Ibf-21" style="edgeStyle=none;curved=1;html=1;startSize=10;endArrow=classic;endFill=1;endSize=10;strokeColor=#000000;strokeWidth=2;fontSize=12;exitX=1;exitY=0.5;exitDx=0;exitDy=0;entryX=0;entryY=0.5;entryDx=0;entryDy=0;" edge="1" parent="1" source="mBHWe2FFzVWGOts86Ibf-19" target="mBHWe2FFzVWGOts86Ibf-16">
          <mxGeometry relative="1" as="geometry">
            <mxPoint x="1360" y="169.44" as="sourcePoint" />
            <mxPoint x="1440" y="169.44" as="targetPoint" />
          </mxGeometry>
        </mxCell>
        <mxCell id="mBHWe2FFzVWGOts86Ibf-23" value="&lt;span style=&quot;font-size: 24px;&quot;&gt;RasterDifferences&lt;/span&gt;" style="rounded=0;whiteSpace=wrap;html=1;" vertex="1" parent="1">
          <mxGeometry x="2280" y="130" width="320" height="80" as="geometry" />
        </mxCell>
        <mxCell id="mBHWe2FFzVWGOts86Ibf-24" style="edgeStyle=none;curved=1;html=1;startSize=10;endArrow=classic;endFill=1;endSize=10;strokeColor=#000000;strokeWidth=2;fontSize=12;exitX=1;exitY=0.5;exitDx=0;exitDy=0;" edge="1" parent="1" source="KTxONo4sn2NWJhOKo6dB-9">
          <mxGeometry relative="1" as="geometry">
            <mxPoint x="2200" y="169.44" as="sourcePoint" />
            <mxPoint x="2280" y="170" as="targetPoint" />
          </mxGeometry>
        </mxCell>
        <mxCell id="mBHWe2FFzVWGOts86Ibf-25" style="edgeStyle=none;curved=1;html=1;startSize=10;endArrow=classic;endFill=1;endSize=10;strokeColor=#000000;strokeWidth=2;fontSize=12;exitX=1;exitY=0.5;exitDx=0;exitDy=0;entryX=0;entryY=0.5;entryDx=0;entryDy=0;" edge="1" parent="1" source="mBHWe2FFzVWGOts86Ibf-1" target="mBHWe2FFzVWGOts86Ibf-27">
          <mxGeometry relative="1" as="geometry">
            <mxPoint x="2200" y="319.72" as="sourcePoint" />
            <mxPoint x="2280" y="319.72" as="targetPoint" />
          </mxGeometry>
        </mxCell>
        <mxCell id="mBHWe2FFzVWGOts86Ibf-26" style="edgeStyle=none;curved=1;html=1;startSize=10;endArrow=classic;endFill=1;endSize=10;strokeColor=#000000;strokeWidth=2;fontSize=12;exitX=1;exitY=0.5;exitDx=0;exitDy=0;" edge="1" parent="1" source="KTxONo4sn2NWJhOKo6dB-8">
          <mxGeometry relative="1" as="geometry">
            <mxPoint x="2200" y="479.8" as="sourcePoint" />
            <mxPoint x="2280" y="479.52000000000004" as="targetPoint" />
          </mxGeometry>
        </mxCell>
        <mxCell id="mBHWe2FFzVWGOts86Ibf-27" value="&lt;span style=&quot;font-size: 24px;&quot;&gt;RasterDifferences&lt;/span&gt;" style="rounded=0;whiteSpace=wrap;html=1;" vertex="1" parent="1">
          <mxGeometry x="2280" y="440" width="320" height="80" as="geometry" />
        </mxCell>
        <mxCell id="mBHWe2FFzVWGOts86Ibf-28" style="edgeStyle=none;curved=1;html=1;startSize=10;endArrow=classic;endFill=1;endSize=10;strokeColor=#000000;strokeWidth=2;fontSize=12;exitX=1;exitY=0.5;exitDx=0;exitDy=0;entryX=0;entryY=0.5;entryDx=0;entryDy=0;" edge="1" parent="1" source="mBHWe2FFzVWGOts86Ibf-1" target="mBHWe2FFzVWGOts86Ibf-23">
          <mxGeometry relative="1" as="geometry">
            <mxPoint x="2210" y="330" as="sourcePoint" />
            <mxPoint x="2290" y="490" as="targetPoint" />
          </mxGeometry>
        </mxCell>
        <mxCell id="mBHWe2FFzVWGOts86Ibf-29" value="DTMCulvertsBurned" style="ellipse;whiteSpace=wrap;html=1;rounded=0;shadow=1;strokeColor=#666666;strokeWidth=4;fontSize=30;align=center;fillColor=#f5f5f5;" vertex="1" parent="1">
          <mxGeometry x="2680" y="130" width="360" height="80" as="geometry" />
        </mxCell>
        <mxCell id="mBHWe2FFzVWGOts86Ibf-30" value="&lt;font style=&quot;font-size: 24px;&quot;&gt;DTMWaterAndCulvertsBurned&lt;/font&gt;" style="ellipse;whiteSpace=wrap;html=1;rounded=0;shadow=1;strokeColor=#666666;strokeWidth=4;fontSize=30;align=center;fillColor=#f5f5f5;" vertex="1" parent="1">
          <mxGeometry x="2680" y="440" width="360" height="80" as="geometry" />
        </mxCell>
        <mxCell id="mBHWe2FFzVWGOts86Ibf-31" style="edgeStyle=none;curved=1;html=1;startSize=10;endArrow=classic;endFill=1;endSize=10;strokeColor=#000000;strokeWidth=2;fontSize=12;exitX=1;exitY=0.5;exitDx=0;exitDy=0;entryX=0;entryY=0.5;entryDx=0;entryDy=0;" edge="1" parent="1" source="mBHWe2FFzVWGOts86Ibf-27" target="mBHWe2FFzVWGOts86Ibf-30">
          <mxGeometry relative="1" as="geometry">
            <mxPoint x="2600" y="479.86" as="sourcePoint" />
            <mxPoint x="2680" y="479.38000000000005" as="targetPoint" />
          </mxGeometry>
        </mxCell>
        <mxCell id="mBHWe2FFzVWGOts86Ibf-33" style="edgeStyle=none;curved=1;html=1;startSize=10;endArrow=classic;endFill=1;endSize=10;strokeColor=#000000;strokeWidth=2;fontSize=12;exitX=1;exitY=0.5;exitDx=0;exitDy=0;entryX=0;entryY=0.5;entryDx=0;entryDy=0;" edge="1" parent="1" source="mBHWe2FFzVWGOts86Ibf-23" target="mBHWe2FFzVWGOts86Ibf-29">
          <mxGeometry relative="1" as="geometry">
            <mxPoint x="2610" y="490" as="sourcePoint" />
            <mxPoint x="2690" y="490" as="targetPoint" />
          </mxGeometry>
        </mxCell>
      </root>
    </mxGraphModel>
  </diagram>
</mxfile>
